<?xml version="1.0" encoding="UTF-8"?>
<svg id="Layer_1" data-name="Layer 1" xmlns="http://www.w3.org/2000/svg" viewBox="0 0 80.97 11.49">
  <path d="M1.45,3.95s.09.01.13.03c.04.02.08.05.11.09l4.3,5.33c.06.08.1.19.1.3s-.03.21-.1.3l-1.11,1.38s-.06.07-.11.09c-.04.02-.09.03-.13.03s-.09-.01-.13-.03c-.04-.02-.08-.05-.11-.09L.1,6.04c-.06-.09-.1-.19-.1-.3s.03-.21.1-.29l1.11-1.38s.06-.07.1-.09c.04-.02.09-.03.13-.03ZM16.5,2.81c.69.01,1.35.22,1.92.61.04.03.07.07.08.12,0,.05,0,.1-.02.14l-.46.63c-.06.09-.22.16-.31.11-.08-.06-.73-.49-1.28-.49-.32,0-.57.2-.57.42,0,.3.27.53.98.79.71.26,1.81.75,1.81,1.86,0,.84-.8,1.69-2.11,1.69-1.17,0-1.81-.44-2.02-.63-.09-.08-.12-.11-.04-.23l.42-.68s.09-.07.14-.08c.06,0,.11,0,.16.03.04.02.68.45,1.27.45.36,0,.62-.2.62-.49,0-.34-.31-.61-.92-.82-.77-.28-1.74-.82-1.74-1.8,0-.81.69-1.62,2.07-1.62ZM68.47,3.04h.21l3.32,2.91h0v-2.69s.02-.08.05-.11c.03-.02.06-.04.09-.04h1.01s.08.01.11.04c.03.03.05.06.05.1v5.1s-.02.07-.05.1c-.03.03-.07.04-.11.04h-.13s-.08-.02-.11-.04l-3.29-3.01h0v2.82s0,.04-.01.06c0,.02-.02.03-.04.05s-.03.02-.05.03c-.01,0-.03,0-.04,0h-1.01s-.08-.01-.11-.04c-.03-.03-.05-.06-.05-.1V3.18s.01-.07.04-.1c.03-.02.07-.04.11-.04ZM22.38,3.04s.06,0,.08.02c.02.01.05.03.06.05l1.93,3.27h.02l1.93-3.27s.04-.04.06-.05c.02-.01.05-.02.08-.02h.13s.07.01.1.04c.03.02.05.05.05.09l.94,5.08s0,.04,0,.07-.02.04-.03.06c-.01.02-.03.03-.06.04-.02,0-.04.01-.07,0h-.98s-.07-.01-.1-.04c-.03-.02-.05-.05-.06-.09l-.38-2.34h-.02l-1.39,2.45s-.04.04-.06.06c-.02.01-.05.02-.08.03h-.15s-.06-.01-.08-.03c-.02-.01-.04-.03-.06-.06l-1.41-2.45h-.02l-.37,2.34s-.03.07-.06.09c-.03.02-.06.03-.1.03h-.98s-.04,0-.07,0c-.02,0-.04-.02-.06-.04-.01-.02-.03-.04-.03-.06s0-.04,0-.07l.94-5.08s.03-.07.05-.09c.03-.02.06-.03.1-.04h.13ZM76.38,3.12h.97s.1.02.14.05c.04.03.06.08.06.13v1.99l1.85-2.1s.1-.07.16-.08h1.07s.05,0,.07.02c.03.02.05.04.07.07s.02.06.02.1c0,.03-.02.07-.04.09l-1.94,2.22,2.12,2.51s.03.06.03.09c0,.04,0,.07-.02.1-.02.03-.04.05-.07.07-.03.02-.06.02-.1.02h-1.15c-.06,0-.11-.02-.15-.05l-1.92-2.38v2.26s-.03.1-.06.13-.09.05-.14.05h-.97s-.05,0-.08,0c-.02,0-.05-.02-.06-.04-.02-.02-.03-.04-.04-.06-.01-.02-.02-.05-.02-.07V3.3s0-.05.02-.07c.01-.02.03-.04.04-.06.02-.02.04-.03.06-.04.02,0,.05-.01.08-.01ZM32.75,3.04s.06,0,.08.02c.02.01.05.04.06.06l2.6,5.09c.05.1-.02.2-.14.2h-.93c-.06,0-.13,0-.18-.04-.05-.03-.09-.09-.11-.15l-.3-.6h-2.27l-.3.61c-.03.06-.07.1-.12.13-.05.03-.11.05-.18.04h-.92c-.13,0-.19-.1-.14-.2l2.61-5.09s.04-.05.06-.06c.02-.01.05-.02.08-.02h.08ZM63.18,3.04s.06,0,.08.02c.03.01.05.04.06.06l2.61,5.09c.05.1-.02.2-.14.2h-.93c-.06,0-.13,0-.18-.04-.05-.03-.09-.09-.11-.15l-.3-.6h-2.27l-.3.61c-.03.06-.07.1-.12.13-.05.03-.12.05-.18.04h-.91c-.13,0-.19-.1-.14-.2l2.61-5.09s.04-.05.06-.06c.03-.01.05-.02.08-.02h.08ZM40.65,3.12c1,0,1.82.73,1.82,1.64,0,.7-.5,1.26-1.23,1.52l1.14,1.92s.02.05.02.08,0,.05-.02.08c-.01.02-.04.04-.06.05-.03.01-.05.01-.08.01h-1.11s-.05,0-.08-.02c-.02-.01-.04-.03-.06-.05l-1.11-2h-.58v1.93s-.02.08-.05.1c-.03.03-.07.04-.11.04h-1s-.03,0-.04,0c-.02,0-.04-.02-.05-.03s-.03-.03-.04-.05c0-.02-.01-.04-.01-.06V3.26s.02-.08.05-.11c.03-.03.07-.04.11-.04h2.49ZM49.7,3.12s.08.01.11.04c.03.03.05.06.05.11v.82s0,.04-.01.06c0,.02-.02.03-.04.05-.01.01-.03.02-.05.03-.01,0-.03,0-.04,0h-1.72v4.04s-.02.08-.05.1c-.03.03-.07.04-.11.04h-1s-.08-.01-.11-.04c-.03-.03-.05-.06-.05-.1v-4.04h-1.72s-.07-.01-.09-.04c-.03-.03-.05-.06-.05-.1v-.82s.02-.08.05-.11c.03-.03.07-.04.11-.04h4.72ZM56.27,3.12c.98,0,1.79.61,1.79,1.41,0,.59-.58,1.01-.97,1.2.44.17,1.12.54,1.11,1.24,0,.85-.82,1.46-1.82,1.46h-2.08s-.03,0-.04,0c-.02,0-.04-.02-.05-.03-.01-.01-.03-.03-.04-.05,0-.02-.01-.04-.01-.06V3.26s.02-.08.05-.11c.03-.03.07-.04.11-.04h1.94ZM4.63,0s.09.01.13.03c.04.02.08.05.11.09l4.3,5.33c.06.09.1.19.1.3s-.04.21-.1.3l-1.12,1.38s-.06.07-.1.09c-.04.02-.09.03-.13.03s-.09-.01-.13-.03c-.04-.02-.08-.05-.11-.09L3.28,2.1c-.06-.09-.1-.19-.1-.3s.04-.21.1-.3L4.39.12s.06-.07.11-.09c.04-.02.09-.03.13-.03ZM55.47,7.33h.76c.08,0,.15,0,.22-.03.07-.03.14-.07.2-.12.06-.05.1-.11.13-.18.03-.07.05-.14.05-.22,0-.3-.36-.53-.69-.53h-.67v1.08ZM32.07,6.6h1.27l-.63-1.25h0l-.62,1.25ZM62.5,6.6h1.27l-.63-1.25h0l-.62,1.25ZM40.55,4.2h-1.23v1.18h1.23c.16,0,.32-.06.44-.18.12-.11.19-.27.19-.43,0-.16-.08-.31-.2-.42-.12-.11-.27-.16-.43-.16ZM55.47,5.27h.65c.15,0,.29-.05.4-.15.11-.1.17-.24.18-.39,0-.3-.27-.51-.58-.51h-.65v1.06Z"/>
</svg>